<svg width="178" height="54" viewBox="0 0 178 54" fill="none" xmlns="http://www.w3.org/2000/svg">
<g clip-path="url(#clip0_2737_15947)">
<rect width="45" height="45" transform="translate(0 4.5)" fill="#FD5B44"/>
<path d="M30.4316 29.9336H5.14258C4.51104 29.9336 4 30.4446 4 31.0762V47.0723C4 48.9624 5.53761 50.5 7.42773 50.5H28.1465C30.0366 50.5 31.5742 48.9624 31.5742 47.0723V31.0762C31.5742 30.4446 31.0632 29.9336 30.4316 29.9336ZM24.5664 36.7891C24.5664 40.5694 21.4913 43.6445 17.7109 43.6445C13.9306 43.6445 10.8555 40.5694 10.8555 36.7891V35.6465C10.8555 35.0149 11.3665 34.5039 11.998 34.5039C12.6296 34.5039 13.1406 35.0149 13.1406 35.6465V36.7891C13.1406 39.3097 15.1903 41.3594 17.7109 41.3594C20.2315 41.3594 22.2812 39.3097 22.2812 36.7891V35.6465C22.2812 35.0149 22.7923 34.5039 23.4238 34.5039C24.0554 34.5039 24.5664 35.0149 24.5664 35.6465V36.7891Z" fill="white"/>
<path d="M41.8574 20.793H35.9922V18.3555C35.9922 14.5751 32.9171 11.5 29.1367 11.5C25.3564 11.5 22.2812 14.5751 22.2812 18.3555V20.793H16.416C15.7845 20.793 15.2734 21.304 15.2734 21.9355V27.6484H30.4316C32.3218 27.6484 33.8594 29.186 33.8594 31.0762V47.0723C33.8594 48.3632 33.4126 49.5422 32.6876 50.5H39.5723C41.4624 50.5 43 48.9624 43 47.0723V21.9355C43 21.304 42.489 20.793 41.8574 20.793ZM33.707 20.793H24.5664V18.3555C24.5664 15.8349 26.6161 13.7852 29.1367 13.7852C31.6573 13.7852 33.707 15.8349 33.707 18.3555V20.793Z" fill="white"/>
</g>
<path d="M56.588 35.5V31.98H72.12V35.5H56.588ZM56.588 8.22V4.7H72.12V8.22H56.588ZM56.588 20.54V17.02H71.24V20.54H56.588ZM54.52 4.7H58.26V35.5H54.52V4.7ZM84.2114 20.32H88.3914L99.3914 35.5H94.7714L84.2114 20.32ZM78.7114 4.7H82.4514V35.5H78.7114V4.7ZM80.7794 8V4.7H87.0714C89.0661 4.7 90.8407 5.08133 92.3954 5.844C93.9794 6.57733 95.2261 7.63333 96.1354 9.012C97.0741 10.3907 97.5434 12.0333 97.5434 13.94C97.5434 15.8173 97.0741 17.46 96.1354 18.868C95.2261 20.2467 93.9794 21.3173 92.3954 22.08C90.8407 22.8133 89.0661 23.18 87.0714 23.18H80.7794V19.88H87.0714C88.3914 19.88 89.5501 19.6453 90.5474 19.176C91.5741 18.7067 92.3661 18.032 92.9234 17.152C93.5101 16.272 93.8034 15.2013 93.8034 13.94C93.8034 12.6787 93.5101 11.608 92.9234 10.728C92.3661 9.848 91.5741 9.17333 90.5474 8.704C89.5501 8.23467 88.3914 8 87.0714 8H80.7794ZM126.653 4.7H130.393V37.04L107.073 12.576V35.5H103.333V3.16L126.653 27.624V4.7ZM140.398 26.26L141.718 22.74H155.358L156.678 26.26H140.398ZM148.45 11.652L143.258 23.884L142.906 24.676L138.33 35.5H134.15L148.45 3.16L162.75 35.5H158.57L154.082 24.94L153.73 24.06L148.45 11.652Z" fill="#101111"/>
<path d="M168.489 33.74C168.489 33.0653 168.723 32.4933 169.193 32.024C169.691 31.5547 170.263 31.32 170.909 31.32C171.583 31.32 172.155 31.5547 172.625 32.024C173.094 32.4933 173.329 33.0653 173.329 33.74C173.329 34.3853 173.094 34.9573 172.625 35.456C172.155 35.9253 171.583 36.16 170.909 36.16C170.263 36.16 169.691 35.9253 169.193 35.456C168.723 34.9573 168.489 34.3853 168.489 33.74Z" fill="#FD5B44"/>
<path d="M62.3481 49.5L58.4481 43.156V49.5H57.2911V40.855H58.4221L62.4521 47.381V40.855H63.5961V49.5H62.3481ZM68.0546 49.565C67.6126 49.565 67.1923 49.4783 66.7936 49.305C66.3949 49.1317 66.0439 48.8933 65.7406 48.59C65.4373 48.2867 65.1989 47.9357 65.0256 47.537C64.8523 47.1383 64.7656 46.718 64.7656 46.276C64.7656 45.8253 64.8523 45.3963 65.0256 44.989C65.1989 44.5817 65.4373 44.2263 65.7406 43.923C66.0439 43.6197 66.3949 43.3857 66.7936 43.221C67.1923 43.0477 67.6126 42.961 68.0546 42.961C68.5053 42.961 68.9343 43.0477 69.3416 43.221C69.7489 43.3857 70.1043 43.6197 70.4076 43.923C70.7109 44.2263 70.9449 44.5817 71.1096 44.989C71.2829 45.3963 71.3696 45.8253 71.3696 46.276C71.3696 46.718 71.2829 47.1383 71.1096 47.537C70.9449 47.9357 70.7109 48.2867 70.4076 48.59C70.1043 48.8933 69.7489 49.1317 69.3416 49.305C68.9343 49.4783 68.5053 49.565 68.0546 49.565ZM68.0546 44.118C67.4739 44.118 66.9756 44.326 66.5596 44.742C66.3603 44.9413 66.2043 45.1753 66.0916 45.444C65.9789 45.7127 65.9226 45.99 65.9226 46.276C65.9226 46.562 65.9789 46.835 66.0916 47.095C66.2043 47.355 66.3603 47.5847 66.5596 47.784C66.7589 47.9833 66.9843 48.1393 67.2356 48.252C67.4956 48.3647 67.7686 48.421 68.0546 48.421C68.3406 48.421 68.6179 48.3647 68.8866 48.252C69.1553 48.1393 69.3849 47.9833 69.5756 47.784C69.7663 47.5847 69.9179 47.355 70.0306 47.095C70.1433 46.835 70.1996 46.562 70.1996 46.276C70.1996 45.99 70.1433 45.7127 70.0306 45.444C69.9179 45.1753 69.7663 44.9413 69.5756 44.742C69.3849 44.5427 69.1553 44.391 68.8866 44.287C68.6266 44.1743 68.3493 44.118 68.0546 44.118ZM79.1417 49.5H78.0107L76.8277 46.562L75.6447 49.5H74.5137L71.8877 43H73.1617L75.0727 47.745L76.1907 45.002L75.3847 43H76.6587L78.5697 47.745L80.4807 43H81.7417L79.1417 49.5ZM93.3778 43.52C93.3345 43.182 93.2435 42.9047 93.1048 42.688C92.9488 42.454 92.7538 42.285 92.5198 42.181C92.2945 42.0683 92.0041 42.012 91.6488 42.012C91.0595 42.012 90.6478 42.1377 90.4138 42.389C90.1885 42.6143 90.0758 42.9393 90.0758 43.364C90.0758 43.6067 90.1105 43.806 90.1798 43.962C90.2491 44.1093 90.3531 44.2307 90.4918 44.326C90.6998 44.4733 91.0421 44.5687 91.5188 44.612C92.0041 44.6553 92.4115 44.7247 92.7408 44.82C93.0788 44.9067 93.3735 45.028 93.6248 45.184C94.2575 45.5827 94.5738 46.2067 94.5738 47.056C94.5738 47.3853 94.5088 47.6973 94.3788 47.992C94.2488 48.2867 94.0668 48.551 93.8328 48.785C93.5555 49.0537 93.2261 49.253 92.8448 49.383C92.4721 49.513 92.0821 49.578 91.6748 49.578C90.7561 49.578 90.0238 49.318 89.4778 48.798C89.0098 48.33 88.7281 47.706 88.6328 46.926L88.6588 46.913H89.8028C89.8721 47.3723 90.0281 47.7147 90.2708 47.94C90.6088 48.252 91.0638 48.408 91.6358 48.408C92.1818 48.408 92.6151 48.2823 92.9358 48.031C93.2565 47.7797 93.4168 47.4547 93.4168 47.056C93.4168 46.874 93.3908 46.718 93.3388 46.588C93.2955 46.4493 93.2088 46.328 93.0788 46.224C92.7841 45.9987 92.2338 45.8557 91.4278 45.795C90.6045 45.7257 89.9805 45.4873 89.5558 45.08C89.1311 44.6727 88.9188 44.1007 88.9188 43.364C88.9188 42.6187 89.1485 42.0163 89.6078 41.557C90.0931 41.0717 90.7691 40.829 91.6358 40.829C92.5371 40.829 93.2391 41.102 93.7418 41.648C94.1838 42.1247 94.4525 42.7487 94.5478 43.52H93.3778ZM99.7622 49.5V45.509C99.7622 45.1017 99.6192 44.755 99.3332 44.469C99.2032 44.339 99.0472 44.235 98.8652 44.157C98.6919 44.079 98.5142 44.04 98.3322 44.04C97.9422 44.04 97.6042 44.183 97.3182 44.469C97.0322 44.755 96.8892 45.1017 96.8892 45.509V49.5H95.7452V40.829H96.8892V43.455C97.3052 43.065 97.7862 42.87 98.3322 42.87C98.6789 42.87 99.0082 42.9393 99.3202 43.078C99.6322 43.208 99.9095 43.3943 100.152 43.637C100.386 43.8797 100.568 44.1657 100.698 44.495C100.837 44.8157 100.906 45.1537 100.906 45.509V49.5H99.7622ZM105.366 49.565C104.924 49.565 104.504 49.4783 104.105 49.305C103.706 49.1317 103.355 48.8933 103.052 48.59C102.749 48.2867 102.51 47.9357 102.337 47.537C102.164 47.1383 102.077 46.718 102.077 46.276C102.077 45.8253 102.164 45.3963 102.337 44.989C102.51 44.5817 102.749 44.2263 103.052 43.923C103.355 43.6197 103.706 43.3857 104.105 43.221C104.504 43.0477 104.924 42.961 105.366 42.961C105.817 42.961 106.246 43.0477 106.653 43.221C107.06 43.3857 107.416 43.6197 107.719 43.923C108.022 44.2263 108.256 44.5817 108.421 44.989C108.594 45.3963 108.681 45.8253 108.681 46.276C108.681 46.718 108.594 47.1383 108.421 47.537C108.256 47.9357 108.022 48.2867 107.719 48.59C107.416 48.8933 107.06 49.1317 106.653 49.305C106.246 49.4783 105.817 49.565 105.366 49.565ZM105.366 44.118C104.785 44.118 104.287 44.326 103.871 44.742C103.672 44.9413 103.516 45.1753 103.403 45.444C103.29 45.7127 103.234 45.99 103.234 46.276C103.234 46.562 103.29 46.835 103.403 47.095C103.516 47.355 103.672 47.5847 103.871 47.784C104.07 47.9833 104.296 48.1393 104.547 48.252C104.807 48.3647 105.08 48.421 105.366 48.421C105.652 48.421 105.929 48.3647 106.198 48.252C106.467 48.1393 106.696 47.9833 106.887 47.784C107.078 47.5847 107.229 47.355 107.342 47.095C107.455 46.835 107.511 46.562 107.511 46.276C107.511 45.99 107.455 45.7127 107.342 45.444C107.229 45.1753 107.078 44.9413 106.887 44.742C106.696 44.5427 106.467 44.391 106.198 44.287C105.938 44.1743 105.661 44.118 105.366 44.118ZM113.139 49.617C112.645 49.617 112.233 49.539 111.904 49.383C111.574 49.2183 111.275 48.9627 111.007 48.616V52.269H109.85V43.156H111.007V44.066C111.275 43.7367 111.596 43.4723 111.969 43.273C112.341 43.0737 112.731 42.974 113.139 42.974C113.581 42.974 114.001 43.0607 114.4 43.234C114.807 43.3987 115.158 43.637 115.453 43.949C115.756 44.261 115.99 44.6207 116.155 45.028C116.328 45.4267 116.415 45.8513 116.415 46.302C116.415 46.7527 116.328 47.1773 116.155 47.576C115.99 47.9747 115.756 48.33 115.453 48.642C115.158 48.9453 114.807 49.1837 114.4 49.357C114.001 49.5303 113.581 49.617 113.139 49.617ZM113.139 44.157C112.853 44.157 112.58 44.2133 112.32 44.326C112.06 44.43 111.834 44.5817 111.644 44.781C111.453 44.9803 111.301 45.2143 111.189 45.483C111.076 45.743 111.02 46.016 111.02 46.302C111.02 46.588 111.076 46.861 111.189 47.121C111.301 47.381 111.453 47.6107 111.644 47.81C111.834 48.0093 112.06 48.1653 112.32 48.278C112.58 48.3907 112.853 48.447 113.139 48.447C113.425 48.447 113.698 48.3907 113.958 48.278C114.218 48.1653 114.443 48.0093 114.634 47.81C114.824 47.6107 114.972 47.381 115.076 47.121C115.188 46.861 115.245 46.588 115.245 46.302C115.245 46.016 115.188 45.743 115.076 45.483C114.972 45.2143 114.824 44.9803 114.634 44.781C114.443 44.5817 114.218 44.43 113.958 44.326C113.698 44.2133 113.425 44.157 113.139 44.157ZM120.87 49.617C120.376 49.617 119.964 49.539 119.635 49.383C119.306 49.2183 119.007 48.9627 118.738 48.616V52.269H117.581V43.156H118.738V44.066C119.007 43.7367 119.327 43.4723 119.7 43.273C120.073 43.0737 120.463 42.974 120.87 42.974C121.312 42.974 121.732 43.0607 122.131 43.234C122.538 43.3987 122.889 43.637 123.184 43.949C123.487 44.261 123.721 44.6207 123.886 45.028C124.059 45.4267 124.146 45.8513 124.146 46.302C124.146 46.7527 124.059 47.1773 123.886 47.576C123.721 47.9747 123.487 48.33 123.184 48.642C122.889 48.9453 122.538 49.1837 122.131 49.357C121.732 49.5303 121.312 49.617 120.87 49.617ZM120.87 44.157C120.584 44.157 120.311 44.2133 120.051 44.326C119.791 44.43 119.566 44.5817 119.375 44.781C119.184 44.9803 119.033 45.2143 118.92 45.483C118.807 45.743 118.751 46.016 118.751 46.302C118.751 46.588 118.807 46.861 118.92 47.121C119.033 47.381 119.184 47.6107 119.375 47.81C119.566 48.0093 119.791 48.1653 120.051 48.278C120.311 48.3907 120.584 48.447 120.87 48.447C121.156 48.447 121.429 48.3907 121.689 48.278C121.949 48.1653 122.174 48.0093 122.365 47.81C122.556 47.6107 122.703 47.381 122.807 47.121C122.92 46.861 122.976 46.588 122.976 46.302C122.976 46.016 122.92 45.743 122.807 45.483C122.703 45.2143 122.556 44.9803 122.365 44.781C122.174 44.5817 121.949 44.43 121.689 44.326C121.429 44.2133 121.156 44.157 120.87 44.157ZM125.657 42.064C125.492 42.064 125.349 42.0077 125.228 41.895C125.115 41.7737 125.059 41.6307 125.059 41.466C125.059 41.3013 125.115 41.1627 125.228 41.05C125.349 40.9287 125.492 40.868 125.657 40.868C125.821 40.868 125.96 40.9287 126.073 41.05C126.194 41.1627 126.255 41.3013 126.255 41.466C126.255 41.6307 126.194 41.7737 126.073 41.895C125.96 42.0077 125.821 42.064 125.657 42.064ZM125.124 49.5V43H126.216V49.5H125.124ZM131.577 49.5V45.6C131.577 45.21 131.434 44.872 131.148 44.586C130.87 44.3087 130.532 44.17 130.134 44.17C129.744 44.17 129.406 44.313 129.12 44.599C128.99 44.729 128.886 44.885 128.808 45.067C128.73 45.2403 128.691 45.418 128.691 45.6V49.5H127.56V43.156H128.691V43.689C128.855 43.4897 129.072 43.325 129.341 43.195C129.609 43.065 129.874 43 130.134 43C130.48 43 130.81 43.0693 131.122 43.208C131.442 43.338 131.724 43.5243 131.967 43.767C132.201 44.001 132.383 44.2783 132.513 44.599C132.651 44.911 132.721 45.2447 132.721 45.6V49.5H131.577ZM137.041 52.269C136.009 52.269 135.117 51.8097 134.363 50.891L135.39 50.28C135.858 50.826 136.408 51.099 137.041 51.099C137.327 51.099 137.6 51.0427 137.86 50.93C138.12 50.8173 138.345 50.6613 138.536 50.462C138.726 50.2627 138.874 50.033 138.978 49.773C139.09 49.513 139.147 49.24 139.147 48.954V48.642C138.557 49.3007 137.851 49.63 137.028 49.63C136.586 49.63 136.161 49.539 135.754 49.357C135.355 49.1663 135.008 48.9107 134.714 48.59C134.419 48.2693 134.185 47.9053 134.012 47.498C133.847 47.0907 133.765 46.6703 133.765 46.237C133.765 45.795 133.847 45.379 134.012 44.989C134.185 44.5903 134.423 44.2393 134.727 43.936C135.03 43.6413 135.377 43.4117 135.767 43.247C136.165 43.0823 136.586 43 137.028 43C137.504 43 137.929 43.104 138.302 43.312C138.674 43.52 138.956 43.754 139.147 44.014V43.117H140.317V48.954C140.317 49.4047 140.23 49.8293 140.057 50.228C139.892 50.6267 139.658 50.982 139.355 51.294C139.06 51.5973 138.709 51.8357 138.302 52.009C137.903 52.1823 137.483 52.269 137.041 52.269ZM137.028 44.183C136.742 44.183 136.469 44.2393 136.209 44.352C135.949 44.456 135.723 44.6077 135.533 44.807C135.342 45.0063 135.19 45.2403 135.078 45.509C134.965 45.769 134.909 46.042 134.909 46.328C134.909 46.614 134.965 46.8913 135.078 47.16C135.19 47.42 135.342 47.6453 135.533 47.836C135.723 48.0267 135.949 48.1783 136.209 48.291C136.469 48.4037 136.742 48.46 137.028 48.46C137.314 48.46 137.587 48.4037 137.847 48.291C138.107 48.1783 138.332 48.0267 138.523 47.836C138.713 47.6453 138.861 47.42 138.965 47.16C139.077 46.8913 139.134 46.614 139.134 46.328C139.134 46.042 139.077 45.769 138.965 45.509C138.861 45.2403 138.713 45.0063 138.523 44.807C138.332 44.6077 138.107 44.456 137.847 44.352C137.587 44.2393 137.314 44.183 137.028 44.183ZM147.466 49.5V40.855H152.198V42.025H148.597V44.651H151.015V45.717H148.597V48.33H152.198V49.5H147.466ZM158.368 49.5V48.512C158.09 48.8327 157.77 49.0883 157.406 49.279C157.042 49.4697 156.656 49.565 156.249 49.565C155.798 49.565 155.373 49.4827 154.975 49.318C154.585 49.1533 154.238 48.9193 153.935 48.616C153.631 48.3213 153.393 47.9747 153.22 47.576C153.055 47.1687 152.973 46.744 152.973 46.302C152.973 45.86 153.055 45.4397 153.22 45.041C153.393 44.6337 153.631 44.2783 153.935 43.975C154.238 43.6717 154.585 43.4377 154.975 43.273C155.373 43.1083 155.798 43.026 156.249 43.026C156.665 43.026 157.055 43.1127 157.419 43.286C157.791 43.4593 158.108 43.702 158.368 44.014V43.156H159.538V49.5H158.368ZM156.249 44.183C155.963 44.183 155.685 44.2393 155.417 44.352C155.157 44.456 154.931 44.6033 154.741 44.794C154.55 44.9847 154.398 45.2143 154.286 45.483C154.182 45.743 154.13 46.016 154.13 46.302C154.13 46.588 154.182 46.861 154.286 47.121C154.398 47.381 154.55 47.6063 154.741 47.797C154.931 47.9877 155.157 48.1393 155.417 48.252C155.685 48.356 155.963 48.408 156.249 48.408C156.535 48.408 156.808 48.356 157.068 48.252C157.328 48.1393 157.553 47.9877 157.744 47.797C157.934 47.6063 158.082 47.381 158.186 47.121C158.298 46.861 158.355 46.588 158.355 46.302C158.355 46.016 158.298 45.743 158.186 45.483C158.082 45.2143 157.934 44.9847 157.744 44.794C157.553 44.6033 157.328 44.456 157.068 44.352C156.808 44.2393 156.535 44.183 156.249 44.183ZM163.856 44.937C163.83 44.781 163.774 44.6337 163.687 44.495C163.523 44.209 163.198 44.066 162.712 44.066C162.452 44.066 162.253 44.0963 162.114 44.157C161.932 44.2263 161.794 44.326 161.698 44.456C161.612 44.586 161.568 44.729 161.568 44.885C161.568 45.0757 161.638 45.249 161.776 45.405C161.924 45.5697 162.162 45.6563 162.491 45.665C163.072 45.691 163.54 45.7603 163.895 45.873C164.259 45.9857 164.537 46.1807 164.727 46.458C164.927 46.7353 165.026 47.1253 165.026 47.628C165.026 48.1393 164.831 48.5813 164.441 48.954C164.251 49.136 164.025 49.2833 163.765 49.396C163.514 49.5087 163.25 49.565 162.972 49.565H162.777C162.084 49.565 161.525 49.3657 161.1 48.967C160.754 48.6463 160.537 48.1957 160.45 47.615H161.607C161.651 47.823 161.737 47.992 161.867 48.122C162.067 48.3127 162.344 48.408 162.699 48.408C162.795 48.408 162.864 48.4037 162.907 48.395C163.211 48.3777 163.449 48.2953 163.622 48.148C163.796 47.992 163.882 47.8013 163.882 47.576C163.882 47.264 163.787 47.0603 163.596 46.965C163.406 46.8697 163.037 46.822 162.491 46.822C161.807 46.822 161.282 46.6053 160.918 46.172C160.624 45.8427 160.476 45.4267 160.476 44.924C160.476 44.8113 160.481 44.7247 160.489 44.664C160.559 44.1007 160.788 43.6717 161.178 43.377C161.577 43.0737 162.101 42.922 162.751 42.922C163.228 42.922 163.644 43.026 163.999 43.234C164.251 43.39 164.467 43.6067 164.649 43.884C164.823 44.1613 164.935 44.508 164.987 44.924L164.961 44.937H163.856ZM168.883 52.269C168.389 52.269 167.929 52.1433 167.505 51.892C167.089 51.6407 166.725 51.2767 166.413 50.8L167.427 50.215C167.609 50.501 167.825 50.7177 168.077 50.865C168.328 51.021 168.597 51.099 168.883 51.099C169.342 51.099 169.741 50.93 170.079 50.592C170.235 50.436 170.352 50.254 170.43 50.046C170.516 49.838 170.56 49.617 170.56 49.383V48.928C170.36 49.136 170.109 49.305 169.806 49.435C169.502 49.5563 169.195 49.617 168.883 49.617C168.501 49.617 168.142 49.5477 167.804 49.409C167.466 49.2617 167.167 49.058 166.907 48.798C166.638 48.538 166.43 48.239 166.283 47.901C166.135 47.5543 166.062 47.1903 166.062 46.809V43H167.206V46.731C167.206 47.0343 167.279 47.3203 167.427 47.589C167.583 47.849 167.786 48.057 168.038 48.213C168.298 48.369 168.579 48.447 168.883 48.447C169.186 48.447 169.468 48.3733 169.728 48.226C169.988 48.07 170.191 47.862 170.339 47.602C170.486 47.3333 170.56 47.043 170.56 46.731V43H171.704V49.383C171.704 49.773 171.63 50.1457 171.483 50.501C171.344 50.8563 171.145 51.164 170.885 51.424C170.616 51.6927 170.308 51.9007 169.962 52.048C169.624 52.1953 169.264 52.269 168.883 52.269Z" fill="#101111"/>
<defs>
<clipPath id="clip0_2737_15947">
<rect width="45" height="45" fill="white" transform="translate(0 4.5)"/>
</clipPath>
</defs>
</svg>
